<svg width="15" height="15" viewBox="0 0 44 44" fill="none" xmlns="http://www.w3.org/2000/svg">
<path d="M21.9805 0.724611C9.90527 0.719728 0.125 10.4951 0.125 22.5605C0.125 32.1016 6.24316 40.2119 14.7637 43.1904C15.9111 43.4785 15.7354 42.6631 15.7354 42.1064V38.3223C9.10938 39.0986 8.84082 34.7139 8.39648 33.9814C7.49805 32.4482 5.37402 32.0576 6.00879 31.3252C7.51758 30.5488 9.05566 31.5205 10.8379 34.1523C12.127 36.0615 14.6416 35.7393 15.916 35.4219C16.1943 34.2744 16.79 33.249 17.6104 32.4531C10.7451 31.2227 7.88379 27.0332 7.88379 22.0527C7.88379 19.6357 8.67969 17.4141 10.2422 15.6221C9.24609 12.668 10.335 10.1387 10.4814 9.7627C13.3184 9.50879 16.2676 11.7939 16.4971 11.9746C18.1084 11.54 19.9492 11.3105 22.0098 11.3105C24.0801 11.3105 25.9258 11.5498 27.5518 11.9893C28.1035 11.5693 30.8379 9.60645 33.4746 9.84571C33.6162 10.2217 34.6807 12.6924 33.7432 15.6074C35.3252 17.4043 36.1309 19.6455 36.1309 22.0674C36.1309 27.0576 33.25 31.252 26.3652 32.4629C26.9549 33.0428 27.4232 33.7344 27.7426 34.4973C28.062 35.2603 28.2262 36.0792 28.2256 36.9062V42.3994C28.2646 42.8389 28.2256 43.2734 28.958 43.2734C37.6055 40.3584 43.8311 32.1895 43.8311 22.5654C43.8311 10.4951 34.0459 0.724611 21.9805 0.724611Z" fill="black"/>
</svg>
