<svg width="24" height="24" viewBox="0 0 24 24" fill="none" xmlns="http://www.w3.org/2000/svg">
<path d="M18.6667 10.3333V19.9167C18.6667 20.1903 18.6128 20.4612 18.5081 20.7139C18.4034 20.9667 18.2499 21.1963 18.0565 21.3898C17.863 21.5833 17.6334 21.7367 17.3806 21.8414C17.1278 21.9461 16.8569 22 16.5833 22H4.08333C3.5308 22 3.00089 21.7805 2.61019 21.3898C2.21949 20.9991 2 20.4692 2 19.9167V7.41667C2 6.86413 2.21949 6.33423 2.61019 5.94353C3.00089 5.55283 3.5308 5.33333 4.08333 5.33333H12.8063M16.1667 2H22V7.83333M10.3333 13.6667L21.5833 2.41667" stroke="black" stroke-width="3" stroke-linecap="round" stroke-linejoin="round"/>
</svg>
