<svg xmlns="http://www.w3.org/2000/svg" xmlns:xlink="http://www.w3.org/1999/xlink" width="77" zoomAndPan="magnify" viewBox="0 0 57.75 53.25" height="71" preserveAspectRatio="xMidYMid meet" version="1.0"><defs><g/><clipPath id="bbf9841dbd"><path d="M 0.277344 0 L 56.5 0 L 56.5 52.335938 L 0.277344 52.335938 Z M 0.277344 0 " clip-rule="nonzero"/></clipPath><clipPath id="7e6db423db"><path d="M 11.371094 0 L 45.398438 0 C 51.527344 0 56.492188 4.96875 56.492188 11.09375 L 56.492188 41.242188 C 56.492188 47.371094 51.527344 52.335938 45.398438 52.335938 L 11.371094 52.335938 C 5.246094 52.335938 0.277344 47.371094 0.277344 41.242188 L 0.277344 11.09375 C 0.277344 4.96875 5.246094 0 11.371094 0 Z M 11.371094 0 " clip-rule="nonzero"/></clipPath><clipPath id="088f1881c4"><path d="M 0.277344 0.00390625 L 56.484375 0.00390625 L 56.484375 52.511719 L 0.277344 52.511719 Z M 0.277344 0.00390625 " clip-rule="nonzero"/></clipPath><clipPath id="382a677ba3"><path d="M 11.371094 0.00390625 L 45.394531 0.00390625 C 51.519531 0.00390625 56.484375 4.96875 56.484375 11.09375 L 56.484375 41.242188 C 56.484375 47.367188 51.519531 52.332031 45.394531 52.332031 L 11.371094 52.332031 C 5.242188 52.332031 0.277344 47.367188 0.277344 41.242188 L 0.277344 11.09375 C 0.277344 4.96875 5.242188 0.00390625 11.371094 0.00390625 Z M 11.371094 0.00390625 " clip-rule="nonzero"/></clipPath></defs><g clip-path="url(#bbf9841dbd)"><g clip-path="url(#7e6db423db)"><path fill="#ffffff" d="M 0.277344 0 L 56.5 0 L 56.5 52.335938 L 0.277344 52.335938 Z M 0.277344 0 " fill-opacity="1" fill-rule="nonzero"/></g></g><g clip-path="url(#088f1881c4)"><g clip-path="url(#382a677ba3)"><path stroke-linecap="butt" transform="matrix(0.739583, 0, 0, 0.739583, 0.277778, 0.00319657)" fill="none" stroke-linejoin="miter" d="M 14.999413 0.000959568 L 61.002933 0.000959568 C 69.284623 0.000959568 75.997651 6.713988 75.997651 14.995678 L 75.997651 55.759762 C 75.997651 64.041452 69.284623 70.75448 61.002933 70.75448 L 14.999413 70.75448 C 6.712441 70.75448 -0.000587218 64.041452 -0.000587218 55.759762 L -0.000587218 14.995678 C -0.000587218 6.713988 6.712441 0.000959568 14.999413 0.000959568 Z M 14.999413 0.000959568 " stroke="#000000" stroke-width="2" stroke-opacity="1" stroke-miterlimit="4"/></g></g><g fill="#000000" fill-opacity="1"><g transform="translate(9.953989, 36.892882)"><g><path d="M 12.046875 -6.0625 C 12.046875 -3.832031 11.515625 -2.210938 10.453125 -1.203125 C 9.390625 -0.191406 7.742188 0.3125 5.515625 0.3125 C 4.910156 0.3125 4.335938 0.269531 3.796875 0.1875 C 3.265625 0.101562 2.585938 -0.0195312 1.765625 -0.1875 C 1.492188 -0.226562 1.300781 -0.332031 1.1875 -0.5 C 1.070312 -0.664062 1.023438 -0.910156 1.046875 -1.234375 L 1.328125 -4.0625 C 1.367188 -4.507812 1.566406 -4.703125 1.921875 -4.640625 C 2.046875 -4.597656 2.296875 -4.519531 2.671875 -4.40625 C 3.054688 -4.289062 3.5 -4.234375 4 -4.234375 C 4.863281 -4.234375 5.5 -4.472656 5.90625 -4.953125 C 6.320312 -5.429688 6.53125 -6.25 6.53125 -7.40625 L 6.53125 -22.8125 C 6.53125 -23 6.578125 -23.144531 6.671875 -23.25 C 6.765625 -23.351562 6.894531 -23.40625 7.0625 -23.40625 L 11.578125 -23.40625 C 11.890625 -23.40625 12.046875 -23.21875 12.046875 -22.84375 Z M 12.046875 -6.0625 "/></g></g></g><g fill="#000000" fill-opacity="1"><g transform="translate(24.05585, 36.892882)"><g><path d="M 20.796875 -8.671875 C 20.796875 -5.472656 19.984375 -3.175781 18.359375 -1.78125 C 16.742188 -0.382812 14.410156 0.3125 11.359375 0.3125 C 8.015625 0.3125 5.601562 -0.472656 4.125 -2.046875 C 2.65625 -3.628906 1.921875 -6.03125 1.921875 -9.25 L 1.921875 -22.78125 C 1.921875 -22.96875 1.96875 -23.117188 2.0625 -23.234375 C 2.15625 -23.347656 2.273438 -23.40625 2.421875 -23.40625 L 6.96875 -23.40625 C 7.28125 -23.40625 7.4375 -23.21875 7.4375 -22.84375 L 7.4375 -8.546875 C 7.4375 -6.847656 7.800781 -5.601562 8.53125 -4.8125 C 9.257812 -4.019531 10.335938 -3.625 11.765625 -3.625 C 14.753906 -3.625 16.25 -5.296875 16.25 -8.640625 L 16.25 -22.8125 C 16.25 -23.207031 16.40625 -23.40625 16.71875 -23.40625 L 20.3125 -23.40625 C 20.632812 -23.40625 20.796875 -23.21875 20.796875 -22.84375 Z M 20.796875 -8.671875 "/></g></g></g></svg>