<svg width="31" height="31" viewBox="0 0 31 31" fill="none" xmlns="http://www.w3.org/2000/svg">
<g clip-path="url(#clip0_502_1222)">
<path d="M23.7344 0H7.26562C3.25293 0 0 3.25293 0 7.26562V23.7344C0 27.7471 3.25293 31 7.26562 31H23.7344C27.7471 31 31 27.7471 31 23.7344V7.26562C31 3.25293 27.7471 0 23.7344 0Z" fill="white"/>
<path d="M23.7344 0H7.26562C3.25293 0 0 3.25293 0 7.26562V23.7344C0 27.7471 3.25293 31 7.26562 31H23.7344C27.7471 31 31 27.7471 31 23.7344V7.26562C31 3.25293 27.7471 0 23.7344 0Z" fill="#0A66C2"/>
<path d="M22.3678 26.3603H25.9122C26.0407 26.3603 26.1639 26.3093 26.2547 26.2185C26.3455 26.1277 26.3966 26.0045 26.3966 25.876L26.3984 18.3874C26.3984 14.4732 25.555 11.4647 20.9809 11.4647C19.2422 11.4 17.6024 12.2963 16.7176 13.7931C16.7133 13.8003 16.7067 13.806 16.6988 13.8092C16.691 13.8123 16.6823 13.8129 16.6742 13.8107C16.666 13.8084 16.6588 13.8036 16.6536 13.7969C16.6485 13.7902 16.6456 13.782 16.6455 13.7736V12.3104C16.6455 12.1819 16.5945 12.0587 16.5037 11.9679C16.4128 11.877 16.2896 11.826 16.1612 11.826H12.7976C12.6691 11.826 12.5459 11.877 12.455 11.9679C12.3642 12.0587 12.3132 12.1819 12.3132 12.3104V25.8753C12.3132 26.0038 12.3642 26.127 12.455 26.2178C12.5459 26.3087 12.6691 26.3597 12.7976 26.3597H16.3417C16.4702 26.3597 16.5934 26.3087 16.6842 26.2178C16.7751 26.127 16.8261 26.0038 16.8261 25.8753V19.17C16.8261 17.274 17.1857 15.4379 19.5363 15.4379C21.8534 15.4379 21.8835 17.6074 21.8835 19.2928V25.8759C21.8835 26.0044 21.9345 26.1276 22.0253 26.2184C22.1162 26.3093 22.2394 26.3603 22.3678 26.3603ZM4.60156 7.22058C4.60156 8.65723 5.78429 9.83935 7.22106 9.83935C8.65748 9.83923 9.83947 8.65639 9.83947 7.21997C9.83923 5.78356 8.65711 4.60156 7.22058 4.60156C5.78368 4.60156 4.60156 5.78392 4.60156 7.22058ZM5.44425 26.3603H8.99315C9.12161 26.3603 9.24482 26.3093 9.33565 26.2184C9.42649 26.1276 9.47752 26.0044 9.47752 25.8759V12.3104C9.47752 12.1819 9.42649 12.0587 9.33565 11.9679C9.24482 11.877 9.12161 11.826 8.99315 11.826H5.44425C5.31579 11.826 5.19259 11.877 5.10175 11.9679C5.01091 12.0587 4.95988 12.1819 4.95988 12.3104V25.8759C4.95988 26.0044 5.01091 26.1276 5.10175 26.2184C5.19259 26.3093 5.31579 26.3603 5.44425 26.3603Z" fill="white"/>
</g>
<defs>
<clipPath id="clip0_502_1222">
<rect width="31" height="31" fill="white"/>
</clipPath>
</defs>
</svg>
